<svg fill="none" height="516" viewBox="0 0 1440 516" width="1440" xmlns="http://www.w3.org/2000/svg" xmlns:xlink="http://www.w3.org/1999/xlink"><linearGradient id="a" gradientUnits="userSpaceOnUse" x1="1440" x2="119.945" y1="0" y2="732.234"><stop offset="0" stop-color="#f65b66"/><stop offset="1" stop-color="#fe8697"/></linearGradient><linearGradient id="b"><stop offset="0" stop-color="#0041b0"/><stop offset="1" stop-color="#1c74eb"/></linearGradient><linearGradient id="c" gradientUnits="userSpaceOnUse" x1="966.337" x2="960.884" xlink:href="#b" y1="118.225" y2="142.833"/><linearGradient id="d" gradientUnits="userSpaceOnUse" x1="1024.29" x2="1018.83" xlink:href="#b" y1="131.064" y2="155.673"/><linearGradient id="e"><stop offset="0" stop-color="#1c74eb"/><stop offset="1" stop-color="#7ca7fd"/></linearGradient><linearGradient id="f" gradientUnits="userSpaceOnUse" x1="900.605" x2="959.146" xlink:href="#e" y1="78.317" y2="88.074"/><linearGradient id="g" gradientUnits="userSpaceOnUse" x1="5.285" x2="60.98" xlink:href="#e" y1="0" y2="8.944"/><linearGradient id="h" gradientUnits="userSpaceOnUse" x1="1024.3" x2="975.532" y1="84.015" y2="86.118"><stop offset="0" stop-color="#455b66"/><stop offset="1" stop-color="#90a4af"/></linearGradient><linearGradient id="i" gradientUnits="userSpaceOnUse" x1="1033.08" x2="963.686" y1="98.869" y2="111.392"><stop offset="0" stop-color="#1c74eb"/><stop offset="1" stop-color="#1b72dc"/></linearGradient><linearGradient id="j" gradientUnits="userSpaceOnUse" x1="1231.24" x2="1188.47" y1="429.728" y2="431.47"><stop offset="0" stop-color="#7ca7fd"/><stop offset="1" stop-color="#1c74eb"/></linearGradient><linearGradient id="k" gradientUnits="userSpaceOnUse" x1="1228.5" x2="1228.5" y1="237.441" y2="419.745"><stop offset="0" stop-color="#f79700"/><stop offset="1" stop-color="#fab901"/></linearGradient><linearGradient id="l" gradientUnits="userSpaceOnUse" x1="1201.85" x2="1261.62" y1="192.612" y2="174.681"><stop offset="0" stop-color="#90a4af"/><stop offset="1" stop-color="#455b66"/></linearGradient><clipPath id="m"><path d="m0 0h1440v516h-1440z"/></clipPath><mask id="n" height="47" maskUnits="userSpaceOnUse" width="82" x="959" y="84"><path d="m960.064 92.032a9.12 9.12 0 0 1 10.877-6.931l62.369 13.818a9.118 9.118 0 0 1 6.93 10.878c-3.09 13.934-16.89 22.727-30.82 19.639l-29.717-6.584c-13.934-3.087-22.727-16.886-19.639-30.82z" fill="#1c74eb"/></mask><mask id="o" height="25" maskUnits="userSpaceOnUse" width="19" x="1091" y="116"><path d="m1109.36 121.065a1.914 1.914 0 0 0 -1.45-2.286l-10.55-2.337a1.923 1.923 0 0 0 -2.29 1.457l-2.92 13.211a7.308 7.308 0 0 0 5.56 8.727c3.94.875 7.85-1.615 8.73-5.561z" fill="#0260d2"/></mask><mask id="p" height="25" maskUnits="userSpaceOnUse" width="18" x="889" y="71"><path d="m892.65 73.049a1.917 1.917 0 0 1 2.286-1.457l10.546 2.336a1.918 1.918 0 0 1 1.457 2.287l-2.927 13.21a7.319 7.319 0 0 1 -14.289-3.165z" fill="#0260d2"/></mask><mask id="q" height="110" maskUnits="userSpaceOnUse" width="70" x="1208" y="137"><path d="m1263.42 145.098-.83-.782a25.795 25.795 0 0 0 -17.66-6.993h-2.56a20.13 20.13 0 0 0 -15.16 6.883 20.157 20.157 0 0 0 -4.94 11.792l-.94 12.73a320.363 320.363 0 0 1 -8.89 54.962l-3.58 14.158a5.447 5.447 0 0 0 4.69 6.749l5.34.584c13.5 1.476 27.12 1.35 40.59-.377l7.04-.903c6.47-.83 11.17-6.57 10.7-13.077l-4.83-66.892a28.674 28.674 0 0 0 -8.97-18.834z" fill="#f65b66"/></mask><g clip-path="url(#m)"><path d="m0 0h1440v516h-1440z" fill="url(#a)"/><path d="m470.799 20.973 42.942-54.325c7.601-9.615 1.087-23.793-11.16-24.29l-585.974-23.725c-8.517-.346-15.607 6.464-15.607 14.987v446.033c0 6.796 6.365 11.798 12.969 10.191l105.376-25.645a172.093 172.093 0 0 0 97.695-64.913 172.105 172.105 0 0 1 49.934-45.322l121.497-72.799a674.013 674.013 0 0 0 182.328-160.192z" fill="#f65b66"/><path d="m1003.17 534.198-43.205 99.192c-3.051 7.007 2.084 14.844 9.727 14.844h590.598c8.77 0 15.67-7.495 14.95-16.238l-47.48-573.162c-.38-4.579-5.18-7.399-9.36-5.5l-44.25 20.088c-60.28 27.368-103.57 82.243-116.15 147.239-15.06 77.81-73.76 139.895-150.6 159.298l-32 8.082c-76.94 19.428-140.55 73.402-172.23 146.157z" fill="#f65b66"/><path d="m948.58 140.107c3.011-13.591 16.47-22.167 30.061-19.156" stroke="url(#c)" stroke-linecap="round" stroke-width="4"/><path d="m1031.14 158.399c3.01-13.591-5.57-27.05-19.16-30.061" stroke="url(#d)" stroke-linecap="round" stroke-width="4"/><g fill="#7ca7fd"><path d="m902.401 69.256a23.346 23.346 0 0 1 9.155.189l15.491 3.432a23.338 23.338 0 0 1 8.378 3.696.256.256 0 0 1 -.102.462 23.346 23.346 0 0 1 -9.155-.189l-15.491-3.432a23.336 23.336 0 0 1 -8.378-3.696.256.256 0 0 1 .102-.462z"/><path d="m1102.13 113.508a23.342 23.342 0 0 0 -8.38-3.696l-15.49-3.432a23.363 23.363 0 0 0 -9.16-.189c-.22.04-.29.331-.1.462a23.342 23.342 0 0 0 8.38 3.696l15.49 3.432c3.01.667 6.12.731 9.15.189.23-.04.29-.331.11-.462z"/><path d="m865.885 61.165a23.346 23.346 0 0 1 9.155.189l15.491 3.432a23.35 23.35 0 0 1 8.379 3.696.257.257 0 0 1 -.103.462 23.344 23.344 0 0 1 -9.155-.189l-15.491-3.432a23.344 23.344 0 0 1 -8.378-3.696.256.256 0 0 1 .102-.462z"/><path d="m1138.64 121.599a23.342 23.342 0 0 0 -8.38-3.696l-15.49-3.432a23.317 23.317 0 0 0 -9.15-.189.254.254 0 0 0 -.1.462 23.372 23.372 0 0 0 8.37 3.696l15.5 3.432c3 .667 6.12.731 9.15.189.23-.04.29-.331.1-.462z"/></g><path d="m898.979 78.317h59.354v8.944h-59.354z" fill="url(#f)" transform="matrix(.97632244 .21632034 -.21632034 .97632244 38.227186 -192.613083)"/><path d="m0 0h59.354v8.944h-59.354z" fill="url(#g)" transform="matrix(-.97632244 -.21632034 -.21632034 .97632244 1101.406784 123.168507)"/><circle cx="960.326" cy="96.49" fill="#0260d2" r="9.35" transform="matrix(.97632244 .21632034 -.21632034 .97632244 43.610923 -205.453395)"/><circle cx="1038.12" cy="113.726" fill="#0260d2" r="9.35" transform="matrix(.97632244 .21632034 -.21632034 .97632244 49.181392 -221.873713)"/><path d="m1005.82 75.34c-14.688-3.254-28.248 1.571-30.288 10.778l53.188 11.784c2.04-9.207-8.21-19.308-22.9-22.562z" fill="url(#h)"/><path clip-rule="evenodd" d="m975.532 86.118 42.868 9.497c1.79-8.1-5.93-16.892-17.81-21.105 1.71.164 3.46.438 5.23.83 14.69 3.254 24.94 13.355 22.9 22.562z" fill="#253238" fill-rule="evenodd" opacity=".5"/><path d="m960.064 92.032a9.12 9.12 0 0 1 10.877-6.931l62.369 13.818a9.118 9.118 0 0 1 6.93 10.878c-3.09 13.934-16.89 22.727-30.82 19.639l-29.717-6.584c-13.934-3.087-22.727-16.886-19.639-30.82z" fill="url(#i)"/><g mask="url(#n)"><path d="m969.994 114.871-4.763-1.055 5.958 8.815 45.601 12.186 19.4-8.61 5.63-25.403-8.34-1.847a73.174 73.174 0 0 1 -63.486 15.914z" fill="#0260d2" opacity=".5"/></g><circle cx="996.584" cy="117.015" fill="#0260d2" r="6.911" transform="matrix(.97632244 .21632034 -.21632034 .97632244 48.909399 -212.810756)"/><circle cx="996.585" cy="117.015" fill="#d9edff" r="3.659" transform="matrix(.97632244 .21632034 -.21632034 .97632244 48.909422 -212.810972)"/><path d="m999.058 117.563a2.54 2.54 0 0 0 -.766-2.419 2.53 2.53 0 0 0 -2.479-.541" stroke="#fff" stroke-linecap="round" stroke-width="1.385"/><path d="m892.65 73.049a1.917 1.917 0 0 1 2.286-1.457l10.546 2.336a1.918 1.918 0 0 1 1.457 2.287l-2.927 13.21a7.319 7.319 0 0 1 -14.289-3.165z" fill="#0260d2"/><path d="m1109.36 121.065a1.914 1.914 0 0 0 -1.45-2.286l-10.55-2.337a1.923 1.923 0 0 0 -2.29 1.457l-2.92 13.211a7.308 7.308 0 0 0 5.56 8.727c3.94.875 7.85-1.615 8.73-5.561z" fill="#0260d2"/><g mask="url(#o)"><path d="m1093.03 138.385 1.31-1.176a22.528 22.528 0 0 0 7.19-20.259l4.63-.224 4.5 2.246-4.35 21.521-7.28.887z" fill="#0041b0" fill-opacity=".5"/></g><g mask="url(#p)"><path d="m891.887 93.402.286-.279a23.682 23.682 0 0 0 6.845-20.626l4.63-.224 4.499 2.246-4.352 21.521-7.275.887z" fill="#0041b0" fill-opacity=".5"/></g><path d="m898.18 70.645 3.969.88-.352 1.587-3.969-.88z" fill="#7ca7fd"/><path d="m1105.37 116.55-3.969-.88-.351 1.588 3.968.88z" fill="#7ca7fd"/><path d="m897.65 69.278a2.846 2.846 0 0 1 5.557 1.231l-.264 1.191-5.557-1.231.264-1.19z" fill="#1c74eb"/><path d="m1106.42 115.536a2.844 2.844 0 1 0 -5.55-1.232l-.27 1.191 5.56 1.231z" fill="#1c74eb"/><circle cx="970.817" cy="90.486" fill="#0260d2" r="2.033" transform="matrix(.97632244 .21632034 -.21632034 .97632244 42.560537 -207.864971)"/><circle cx="977.961" cy="92.069" fill="#0260d2" r="2.033" transform="matrix(.97632244 .21632034 -.21632034 .97632244 43.072341 -209.372859)"/><rect fill="#253238" height="3.252" rx="1" transform="matrix(.97632244 .21632034 -.21632034 .97632244 52.316337 -201.098862)" width="8.131" x="944.787" y="138.434"/><rect fill="#253238" height="3.252" rx="1" transform="matrix(.97632244 .21632034 -.21632034 .97632244 58.227922 -218.523644)" width="8.131" x="1027.34" y="156.726"/><path d="m1250.53 200.46 9.82-12.476-11.98-4.308-3.06 5.077a1.998 1.998 0 0 1 -2.3.879l-32.95-10.107-5.81-1.898a3.998 3.998 0 0 1 -2.64-2.841l-2.35-9.487a.284.284 0 0 0 -.41-.184 3.433 3.433 0 0 0 -1.5 4.495l.18.375c.21.45.15.98-.17 1.365l-.13.161a2.833 2.833 0 0 1 -4.35.047l-6.29-7.373c-.6-.706-1.76-.282-1.76.647v.936l4.72 6.075c.41.523.76 1.09 1.04 1.69l2.82 5.992a3.984 3.984 0 0 0 1.82 1.869l6.04 3.036 40.93 18.103a6.99 6.99 0 0 0 8.33-2.073z" fill="#694d3d"/><path d="m1269.59 124.373-8.97-19.426-32.87 1.992-1 13.947-.65 8.209a12.56 12.56 0 0 1 -3.19 7.408l-.13.138a11.616 11.616 0 0 0 2.48 17.618l14.44 4.483 25.05-1.139a13.57 13.57 0 0 0 11.43-7.314 15.577 15.577 0 0 0 -.29-14.817z" fill="#253238"/><rect fill="#d14f5f" height="18.928" rx="9.464" transform="matrix(-1 0 0 1 1293.5 434.19)" width="131.498"/><path d="m1216.21 415.52 10.924-.862.897 11.363-10.924.862z" fill="#896550"/><path d="m1253.15 413.768h10.958v11.954h-10.958z" fill="#896550"/><path d="m1216.21 415.52 10.92-.862.57 7.199a28.72 28.72 0 0 0 -10.71.804l-.21.058z" fill="#694d3d"/><path d="m1231.24 438.938v-11.515a3.263 3.263 0 0 0 -4.3-3.093l-.68.229c-2.26.753-4.71.72-6.95-.094l-2.02-.735a5.93 5.93 0 0 0 -6.32 2.381l-.47.668a7.095 7.095 0 0 1 -4.59 2.952l-10.74 1.928a8.23 8.23 0 0 0 -6.67 6.836c-.05.356.22.676.58.676h41.92c.13 0 .24-.104.24-.233z" fill="url(#j)"/><path d="m1189.55 317.428 30.73-75.006 50.31-4.981-2.99 12.95-7.47 15.442-38.27 55.658a24.022 24.022 0 0 0 -3.86 17.775l14.23 80.479h-18.93l-24.62-86.658a23.981 23.981 0 0 1 .87-15.659z" fill="url(#k)"/><path d="m1253.15 417.753h10.96v4.981c-3.61-.82-7.35-.82-10.96 0z" fill="#694d3d"/><path d="m1249.67 419.745-18.93-176.327 39.35-5.479-3.49 181.806z" fill="#fab901"/><path d="m1263.42 145.098-.83-.782a25.795 25.795 0 0 0 -17.66-6.993h-2.56a20.13 20.13 0 0 0 -15.16 6.883 20.157 20.157 0 0 0 -4.94 11.792l-.94 12.73a320.363 320.363 0 0 1 -8.89 54.962l-3.58 14.158a5.447 5.447 0 0 0 4.69 6.749l5.34.584c13.5 1.476 27.12 1.35 40.59-.377l7.04-.903c6.47-.83 11.17-6.57 10.7-13.077l-4.83-66.892a28.674 28.674 0 0 0 -8.97-18.834z" fill="#455b66"/><g mask="url(#q)"><path d="m1273.57 181.156-1.37 24.055a48.393 48.393 0 0 1 -27.02 40.697l20.42 5.978 15.45-14.943z" fill="#253238" opacity=".5"/></g><path d="m1227.48 122.558-1.05-10.826a14.465 14.465 0 0 1 4.17-11.63l2.15-2.145a16.816 16.816 0 0 1 8.26-4.535l1.5-.334a10.79 10.79 0 0 1 13.13 10.535v11.688c0 3.023-.59 6.017-1.74 8.813l-.55 1.343a15.719 15.719 0 0 0 -1.19 6.016v7.833a7.97 7.97 0 0 1 -7.97 7.969 7.964 7.964 0 0 1 -7.97-7.969v-5.479a7.755 7.755 0 0 1 -7.31-5.167l-.22-.638a22.834 22.834 0 0 1 -1.21-5.474z" fill="#896550"/><path d="m1243.69 133.837h-7.47v4.482l4.48-1.992 3.22-1.239c.67-.257.49-1.251-.23-1.251z" fill="#694d3d"/><path d="m1187.03 160.684a1.01 1.01 0 0 0 -1.4-.249l-.6.422c-.45.316-.56.939-.25 1.392l16.73 23.991 2.25-1.565z" fill="#455b66"/><path d="m1193.55 181.222-7.11-10.107c-.7-.981-.09-2.344 1.1-2.491l5.34 8.034z" fill="#896550"/><path d="m1247.65 210.141 11.24-11.216-11.38-5.707-3.65 4.676c-.56.724-1.54.97-2.38.599l-31.51-13.967-5.54-2.578a3.988 3.988 0 0 1 -2.29-3.135l-1.2-9.7a.286.286 0 0 0 -.39-.232 3.437 3.437 0 0 0 -2.02 4.284l.13.394c.16.472.03.991-.33 1.335l-.15.144a2.83 2.83 0 0 1 -4.32-.471l-5.37-8.072c-.51-.773-1.71-.489-1.82.432l-.12.93 3.97 6.595c.34.568.62 1.172.83 1.802l2.09 6.286c.28.849.84 1.579 1.58 2.073l5.63 3.734 38.48 22.858a7 7 0 0 0 8.52-1.064z" fill="#896550"/><path d="m1270.58 169.988.82-6.118a14.59 14.59 0 0 0 -2.02-9.543l-1.59-2.611a6.229 6.229 0 0 0 -3.35-2.659c-3.59-1.198-7.41 1.065-8.09 4.791l-1.7 9.376-6.41 20.711c-.05.14-.1.276-.16.407l-4.6 9.617c-.45.931-.11 2.047.77 2.578l13.16 7.896c.13.075.29.038.37-.084a82.567 82.567 0 0 0 12.8-34.361z" fill="url(#l)"/><path d="m1268.09 438.938v-11.515a3.255 3.255 0 0 0 -4.29-3.093l-.68.229c-2.26.753-4.71.72-6.95-.094l-2.02-.735a5.93 5.93 0 0 0 -6.32 2.381l-.47.668a7.095 7.095 0 0 1 -4.59 2.952l-10.74 1.928a8.218 8.218 0 0 0 -6.67 6.836c-.05.356.22.676.58.676h41.92a.23.23 0 0 0 .23-.233z" fill="#1c74eb"/><path d="m1234.09 111.409.49-.183c5.47-2.052 11.54.946 13.23 6.539l.69 2.249c.77 2.541.96 5.223.55 7.847l-1.17 7.588a9.787 9.787 0 0 0 -.02 2.756 11.079 11.079 0 0 0 10.97 9.578h1.36c1.6 0 3.18.351 4.63 1.027l5.27 2.46-7.29-27.421a35.589 35.589 0 0 1 -1.18-9.069v-4.044c0-2.825-.66-5.61-1.92-8.136a18.2 18.2 0 0 0 -11.2-9.336l-.92-.266c-4.45-1.292-9.21-1-13.47.825l-2.48 1.062a13.273 13.273 0 0 0 -6.97 6.973l-1.17 2.73a4.384 4.384 0 0 0 1.06 4.952 9.26 9.26 0 0 0 9.54 1.869z" fill="#253238"/></g></svg>